<svg width="293" height="61" viewBox="0 0 293 61" fill="none" xmlns="http://www.w3.org/2000/svg">
<g filter="url(#filter0_d_2_4)">
<path d="M17.3925 48C15.7875 48.3 14.2125 48.4275 12.6675 48.3825C11.1375 48.3525 9.765 48.075 8.55 47.55C7.335 47.01 6.4125 46.1625 5.7825 45.0075C5.2275 43.9575 4.935 42.885 4.905 41.79C4.875 40.695 4.86 39.4575 4.86 38.0775V16.95H10.26V37.7625C10.26 38.7375 10.2675 39.5925 10.2825 40.3275C10.3125 41.0625 10.47 41.6625 10.755 42.1275C11.295 43.0275 12.1575 43.53 13.3425 43.635C14.5275 43.74 15.8775 43.68 17.3925 43.455V48ZM0.45 27.9525V23.7H17.3925V27.9525H0.45ZM41.6753 48V36.3C41.6753 35.535 41.6228 34.6875 41.5178 33.7575C41.4128 32.8275 41.1653 31.935 40.7753 31.08C40.4003 30.21 39.8303 29.4975 39.0653 28.9425C38.3153 28.3875 37.2953 28.11 36.0053 28.11C35.3153 28.11 34.6328 28.2225 33.9578 28.4475C33.2828 28.6725 32.6678 29.0625 32.1128 29.6175C31.5728 30.1575 31.1378 30.9075 30.8078 31.8675C30.4778 32.8125 30.3128 34.0275 30.3128 35.5125L27.0953 34.14C27.0953 32.07 27.4928 30.195 28.2878 28.515C29.0978 26.835 30.2828 25.5 31.8428 24.51C33.4028 23.505 35.3228 23.0025 37.6028 23.0025C39.4028 23.0025 40.8878 23.3025 42.0578 23.9025C43.2278 24.5025 44.1578 25.2675 44.8478 26.1975C45.5378 27.1275 46.0478 28.1175 46.3778 29.1675C46.7078 30.2175 46.9178 31.215 47.0078 32.16C47.1128 33.09 47.1653 33.8475 47.1653 34.4325V48H41.6753ZM24.8228 48V15.6H29.6603V32.655H30.3128V48H24.8228ZM66.3342 48.675C63.8742 48.675 61.7142 48.1425 59.8542 47.0775C57.9942 46.0125 56.5392 44.535 55.4892 42.645C54.4542 40.755 53.9367 38.58 53.9367 36.12C53.9367 33.465 54.4467 31.1625 55.4667 29.2125C56.4867 27.2475 57.9042 25.725 59.7192 24.645C61.5342 23.565 63.6342 23.025 66.0192 23.025C68.5392 23.025 70.6767 23.6175 72.4317 24.8025C74.2017 25.9725 75.5142 27.63 76.3692 29.775C77.2242 31.92 77.5467 34.4475 77.3367 37.3575H71.9592V35.3775C71.9442 32.7375 71.4792 30.81 70.5642 29.595C69.6492 28.38 68.2092 27.7725 66.2442 27.7725C64.0242 27.7725 62.3742 28.4625 61.2942 29.8425C60.2142 31.2075 59.6742 33.21 59.6742 35.85C59.6742 38.31 60.2142 40.215 61.2942 41.565C62.3742 42.915 63.9492 43.59 66.0192 43.59C67.3542 43.59 68.5017 43.2975 69.4617 42.7125C70.4367 42.1125 71.1867 41.25 71.7117 40.125L77.0667 41.745C76.1367 43.935 74.6967 45.6375 72.7467 46.8525C70.8117 48.0675 68.6742 48.675 66.3342 48.675ZM57.9642 37.3575V33.2625H74.6817V37.3575H57.9642ZM205.809 48.675C203.379 48.675 201.257 48.1275 199.442 47.0325C197.627 45.9375 196.217 44.43 195.212 42.51C194.222 40.575 193.727 38.355 193.727 35.85C193.727 33.3 194.237 31.065 195.257 29.145C196.277 27.225 197.694 25.725 199.509 24.645C201.324 23.565 203.424 23.025 205.809 23.025C208.254 23.025 210.384 23.5725 212.199 24.6675C214.014 25.7625 215.424 27.2775 216.429 29.2125C217.434 31.1325 217.937 33.345 217.937 35.85C217.937 38.37 217.427 40.5975 216.407 42.5325C215.402 44.4525 213.992 45.96 212.177 47.055C210.362 48.135 208.239 48.675 205.809 48.675ZM205.809 43.59C207.969 43.59 209.574 42.87 210.624 41.43C211.674 39.99 212.199 38.13 212.199 35.85C212.199 33.495 211.667 31.62 210.602 30.225C209.537 28.815 207.939 28.11 205.809 28.11C204.354 28.11 203.154 28.44 202.209 29.1C201.279 29.745 200.589 30.6525 200.139 31.8225C199.689 32.9775 199.464 34.32 199.464 35.85C199.464 38.205 199.997 40.0875 201.062 41.4975C202.142 42.8925 203.724 43.59 205.809 43.59ZM241.952 48V36.3C241.952 35.535 241.899 34.6875 241.794 33.7575C241.689 32.8275 241.442 31.935 241.052 31.08C240.677 30.21 240.107 29.4975 239.342 28.9425C238.592 28.3875 237.572 28.11 236.282 28.11C235.592 28.11 234.909 28.2225 234.234 28.4475C233.559 28.6725 232.944 29.0625 232.389 29.6175C231.849 30.1575 231.414 30.9075 231.084 31.8675C230.754 32.8125 230.589 34.0275 230.589 35.5125L227.372 34.14C227.372 32.07 227.769 30.195 228.564 28.515C229.374 26.835 230.559 25.5 232.119 24.51C233.679 23.505 235.599 23.0025 237.879 23.0025C239.679 23.0025 241.164 23.3025 242.334 23.9025C243.504 24.5025 244.434 25.2675 245.124 26.1975C245.814 27.1275 246.324 28.1175 246.654 29.1675C246.984 30.2175 247.194 31.215 247.284 32.16C247.389 33.09 247.442 33.8475 247.442 34.4325V48H241.952ZM225.099 48V23.7H229.937V31.2375H230.589V48H225.099ZM256.013 48V14.925H261.436V48H256.013ZM273.62 58.8L278.3 45.9525L278.39 49.7325L267.793 23.7H273.44L280.955 42.96H279.515L286.828 23.7H292.25L278.705 58.8H273.62Z" fill="white"/>
<path d="M89.782 48L82.357 23.655L87.667 23.7L92.4145 39.2925L97.2295 23.7H101.797L106.59 39.2925L111.36 23.7H116.67L109.245 48H105.015L99.502 31.2825L94.012 48H89.782ZM128.413 48.675C126.658 48.675 125.173 48.345 123.958 47.685C122.743 47.01 121.82 46.1175 121.19 45.0075C120.575 43.8975 120.268 42.675 120.268 41.34C120.268 40.17 120.463 39.12 120.853 38.19C121.243 37.245 121.843 36.435 122.653 35.76C123.463 35.07 124.513 34.5075 125.803 34.0725C126.778 33.7575 127.918 33.4725 129.223 33.2175C130.543 32.9625 131.968 32.73 133.498 32.52C135.043 32.295 136.655 32.055 138.335 31.8L136.4 32.9025C136.415 31.2225 136.04 29.985 135.275 29.19C134.51 28.395 133.22 27.9975 131.405 27.9975C130.31 27.9975 129.253 28.2525 128.233 28.7625C127.213 29.2725 126.5 30.15 126.095 31.395L121.145 29.8425C121.745 27.7875 122.885 26.1375 124.565 24.8925C126.26 23.6475 128.54 23.025 131.405 23.025C133.565 23.025 135.463 23.3775 137.098 24.0825C138.748 24.7875 139.97 25.9425 140.765 27.5475C141.2 28.4025 141.463 29.28 141.553 30.18C141.643 31.065 141.688 32.0325 141.688 33.0825V48H136.94V42.735L137.728 43.59C136.633 45.345 135.35 46.635 133.88 47.46C132.425 48.27 130.603 48.675 128.413 48.675ZM129.493 44.355C130.723 44.355 131.773 44.1375 132.643 43.7025C133.513 43.2675 134.203 42.735 134.713 42.105C135.238 41.475 135.59 40.8825 135.77 40.3275C136.055 39.6375 136.213 38.85 136.243 37.965C136.288 37.065 136.31 36.3375 136.31 35.7825L137.975 36.2775C136.34 36.5325 134.938 36.7575 133.768 36.9525C132.598 37.1475 131.593 37.335 130.753 37.515C129.913 37.68 129.17 37.8675 128.525 38.0775C127.895 38.3025 127.363 38.565 126.928 38.865C126.493 39.165 126.155 39.51 125.915 39.9C125.69 40.29 125.578 40.7475 125.578 41.2725C125.578 41.8725 125.728 42.405 126.028 42.87C126.328 43.32 126.763 43.68 127.333 43.95C127.918 44.22 128.638 44.355 129.493 44.355ZM166.603 48V36.3C166.603 35.535 166.551 34.6875 166.446 33.7575C166.341 32.8275 166.093 31.935 165.703 31.08C165.328 30.21 164.758 29.4975 163.993 28.9425C163.243 28.3875 162.223 28.11 160.933 28.11C160.243 28.11 159.561 28.2225 158.886 28.4475C158.211 28.6725 157.596 29.0625 157.041 29.6175C156.501 30.1575 156.066 30.9075 155.736 31.8675C155.406 32.8125 155.241 34.0275 155.241 35.5125L152.023 34.14C152.023 32.07 152.421 30.195 153.216 28.515C154.026 26.835 155.211 25.5 156.771 24.51C158.331 23.505 160.251 23.0025 162.531 23.0025C164.331 23.0025 165.816 23.3025 166.986 23.9025C168.156 24.5025 169.086 25.2675 169.776 26.1975C170.466 27.1275 170.976 28.1175 171.306 29.1675C171.636 30.2175 171.846 31.215 171.936 32.16C172.041 33.09 172.093 33.8475 172.093 34.4325V48H166.603ZM149.751 48V23.7H154.588V31.2375H155.241V48H149.751ZM180.664 20.01V15.0375H186.087V20.01H180.664ZM180.664 48V23.7H186.087V48H180.664Z" fill="#4C83E1"/>
</g>
<defs>
<filter id="filter0_d_2_4" x="-3.54999" y="14.925" width="299.8" height="51.875" filterUnits="userSpaceOnUse" color-interpolation-filters="sRGB">
<feFlood flood-opacity="0" result="BackgroundImageFix"/>
<feColorMatrix in="SourceAlpha" type="matrix" values="0 0 0 0 0 0 0 0 0 0 0 0 0 0 0 0 0 0 127 0" result="hardAlpha"/>
<feOffset dy="4"/>
<feGaussianBlur stdDeviation="2"/>
<feComposite in2="hardAlpha" operator="out"/>
<feColorMatrix type="matrix" values="0 0 0 0 0 0 0 0 0 0 0 0 0 0 0 0 0 0 0.25 0"/>
<feBlend mode="normal" in2="BackgroundImageFix" result="effect1_dropShadow_2_4"/>
<feBlend mode="normal" in="SourceGraphic" in2="effect1_dropShadow_2_4" result="shape"/>
</filter>
</defs>
</svg>
